<svg xmlns="http://www.w3.org/2000/svg" width="64" height="64" viewBox="0 0 64 64" fill="none">
  <rect x="8" y="10" width="48" height="48" rx="16" fill="#E2E8F0"/>
  <rect x="6" y="6" width="48" height="48" rx="16" fill="#FFFDF5" stroke="#1E293B" stroke-width="4"/>

  <path
    d="M17 41C17 32.5 28 34.5 28 26C28 19.5 37.5 21.5 42 15"
    stroke="#1E293B"
    stroke-width="10"
    stroke-linecap="round"
    stroke-linejoin="round"
  />
  <path
    d="M17 41C17 32.5 28 34.5 28 26C28 19.5 37.5 21.5 42 15"
    stroke="#8B5CF6"
    stroke-width="6"
    stroke-linecap="round"
    stroke-linejoin="round"
  />
  <path
    d="M17 41C17 32.5 28 34.5 28 26C28 19.5 37.5 21.5 42 15"
    stroke="#FFFDF5"
    stroke-width="2.5"
    stroke-linecap="round"
    stroke-dasharray="0.01 7"
  />

  <circle cx="17" cy="41" r="5.5" fill="#34D399" stroke="#1E293B" stroke-width="3"/>
  <circle cx="28" cy="26" r="4.25" fill="#F472B6" stroke="#1E293B" stroke-width="3"/>

  <path d="M42 14V27" stroke="#1E293B" stroke-width="4" stroke-linecap="round"/>
  <path d="M42 14L52 17.5L42 21V14Z" fill="#FBBF24" stroke="#1E293B" stroke-width="3" stroke-linejoin="round"/>
</svg>
